<svg xmlns="http://www.w3.org/2000/svg" viewBox="0 0 127 27.6"><path d="M37.3 22h-5.5c-.3 0-.5-.2-.5-.5v-15c0-.3.2-.5.5-.5h5.5c10.5-.1 10.5 15.9 0 16zm-2-4.3c0 .3.2.5.5.5h1.4c5.1 0 5.1-8.6 0-8.6h-1.4c-.3 0-.5.2-.5.5v7.6zm20.5 2.2h-5.7c-.2 0-.4.1-.4.3l-.7 1.5c-.1.2-.2.3-.4.3h-3.2c-.3 0-.5-.2-.5-.5v-.2L52 6c.1-.2.2-.3.4-.3h1.1c.2 0 .4.1.4.3L61 21.3v.2c0 .3-.2.5-.5.5h-3.2c-.2 0-.4-.1-.4-.3l-.7-1.5c0-.1-.2-.3-.4-.3zm-3.3-6.7l-1.1 2.5c-.1.3.1.7.4.7H54c.4 0 .6-.4.4-.7l-1.1-2.5c-.1-.4-.7-.4-.8 0zm6.8-4.1V6.5c0-.3.2-.5.5-.5h10.9c.3 0 .5.2.5.5v2.6c0 .3-.2.5-.5.5h-2.9c-.3 0-.5.2-.5.5v11.4c0 .3-.2.5-.5.5h-3c-.3 0-.5-.2-.5-.5V10.2c0-.3-.2-.5-.5-.5h-2.9c-.3-.1-.6-.3-.6-.6zm21.3 10.8h-5.7c-.2 0-.4.1-.4.3l-.7 1.5c-.1.2-.3.3-.4.3h-3.2c-.3 0-.5-.2-.5-.5v-.2L76.8 6c.1-.2.3-.3.4-.3h1.1c.2 0 .4.1.4.3l7.1 15.3v.2c0 .3-.2.5-.5.5h-3.2c-.2 0-.4-.1-.4-.3l-.7-1.5c0-.1-.2-.3-.4-.3zm-3.3-6.7l-1.1 2.5c-.1.3.1.7.4.7h2.1c.4 0 .6-.4.4-.7L78 13.2c0-.4-.6-.4-.7 0zm21.8-.1c-.2.2-.1.6.1.8.9.7 1.4 1.7 1.4 3 0 2.8-1.7 5.1-5 5.1h-7c-.3 0-.5-.2-.5-.5v-15c0-.3.2-.5.5-.5H95c2.8 0 5 2.2 5 4.9 0 .7-.3 1.6-.9 2.2zm-7-3v1.6c0 .3.2.5.5.5h2.1c1.6 0 1.6-2.7 0-2.7h-2c-.4 0-.6.3-.6.6zm0 6v1.7c0 .3.2.5.5.5h2.8c1.7 0 1.6-2.7 0-2.7h-2.7c-.4 0-.6.2-.6.5zm20.2-6.6h-4.9c-.3 0-.5.2-.5.5v1.2c0 .3.2.5.5.5h4.4c.3 0 .5.2.5.5V15c0 .3-.2.5-.5.5h-4.4c-.3 0-.5.2-.5.5v1.7c0 .3.2.5.5.5h5.1c.3 0 .5.2.5.5v2.6c0 .3-.2.5-.5.5h-9.2c-.3 0-.5-.2-.5-.5v-15c0-.3.2-.5.5-.5h9c.3 0 .5.2.5.5V9c0 .3-.2.5-.5.5zM115 9V6.4c0-.3.2-.5.5-.5h10.9c.3 0 .5.2.5.5V9c0 .3-.2.5-.5.5h-2.9c-.3 0-.5.2-.5.5v11.4c0 .3-.2.5-.5.5h-3c-.3 0-.5-.2-.5-.5V10.1c0-.3-.2-.5-.5-.5h-2.9c-.3-.1-.6-.3-.6-.6z" fill="#5f6368"/><path fill="#ea4335" d="M0 0h27.6v27.6H0z"/><path d="M14.3 15.2v6.1c0 .3-.2.5-.5.5h-3.2c-.3 0-.5-.2-.5-.5v-15c0-.3.2-.5.5-.5h3.5c.1 0 .2 0 .3.1.1 0 .1.1.2.2l4.2 6.8c.3.3.9.1.9-.4V6.3c0-.3.2-.5.5-.5h3.1c.4 0 .7.2.7.5v15.1c0 .3-.2.5-.5.5H20c-.1 0-.2 0-.3-.1-.1 0-.1-.1-.2-.2l-4.3-6.8c-.3-.3-.9 0-.9.4zm-7 6.7h-3c-.3 0-.5-.2-.5-.5v-15c0-.3.2-.5.5-.5h3c.3 0 .5.2.5.5v15c0 .2-.2.5-.5.5z" fill="#fff"/></svg>