<?xml version="1.0" encoding="utf-8"?>
<!-- Generator: Adobe Illustrator 24.1.1, SVG Export Plug-In . SVG Version: 6.00 Build 0)  -->
<svg version="1.1" id="Logo" xmlns="http://www.w3.org/2000/svg" xmlns:xlink="http://www.w3.org/1999/xlink" x="0px" y="0px"
	 viewBox="0 0 127 27.6" style="enable-background:new 0 0 127 27.6;" xml:space="preserve">
<style type="text/css">
	.st0{fill:#5F6368;}
	.st1{fill:#EA4335;}
	.st2{fill:#FFFFFF;}
</style>
<g id="databet">
	<path class="st0" d="M37.3,22h-5.5c-0.3,0-0.5-0.2-0.5-0.5v-15c0-0.3,0.2-0.5,0.5-0.5h5.5C47.8,5.9,47.8,21.9,37.3,22z M35.3,17.7
		c0,0.3,0.2,0.5,0.5,0.5h1.4c5.1,0,5.1-8.6,0-8.6h-1.4c-0.3,0-0.5,0.2-0.5,0.5V17.7z"/>
	<path class="st0" d="M55.8,19.9h-5.7c-0.2,0-0.4,0.1-0.4,0.3L49,21.7c-0.1,0.2-0.2,0.3-0.4,0.3h-3.2c-0.3,0-0.5-0.2-0.5-0.5l0,0
		c0-0.1,0-0.1,0-0.2l7.1-15.3c0.1-0.2,0.2-0.3,0.4-0.3h1.1c0.2,0,0.4,0.1,0.4,0.3L61,21.3c0,0.1,0,0.1,0,0.2l0,0
		c0,0.3-0.2,0.5-0.5,0.5h-3.2c-0.2,0-0.4-0.1-0.4-0.3l-0.7-1.5C56.2,20.1,56,19.9,55.8,19.9z M52.5,13.2l-1.1,2.5
		c-0.1,0.3,0.1,0.7,0.4,0.7H54c0.4,0,0.6-0.4,0.4-0.7l-1.1-2.5C53.2,12.8,52.6,12.8,52.5,13.2z"/>
	<path class="st0" d="M59.3,9.1V6.5c0-0.3,0.2-0.5,0.5-0.5h10.9c0.3,0,0.5,0.2,0.5,0.5v2.6c0,0.3-0.2,0.5-0.5,0.5h-2.9
		c-0.3,0-0.5,0.2-0.5,0.5v11.4c0,0.3-0.2,0.5-0.5,0.5h-3c-0.3,0-0.5-0.2-0.5-0.5V10.2c0-0.3-0.2-0.5-0.5-0.5h-2.9
		C59.6,9.6,59.3,9.4,59.3,9.1z"/>
	<path class="st0" d="M80.6,19.9h-5.7c-0.2,0-0.4,0.1-0.4,0.3l-0.7,1.5c-0.1,0.2-0.3,0.3-0.4,0.3h-3.2c-0.3,0-0.5-0.2-0.5-0.5l0,0
		c0-0.1,0-0.1,0-0.2l7.1-15.3c0.1-0.2,0.3-0.3,0.4-0.3h1.1c0.2,0,0.4,0.1,0.4,0.3l7.1,15.3c0,0.1,0,0.1,0,0.2l0,0
		c0,0.3-0.2,0.5-0.5,0.5h-3.2c-0.2,0-0.4-0.1-0.4-0.3L81,20.2C81,20.1,80.8,19.9,80.6,19.9z M77.3,13.2l-1.1,2.5
		c-0.1,0.3,0.1,0.7,0.4,0.7h2.1c0.4,0,0.6-0.4,0.4-0.7l-1.1-2.5C78,12.8,77.4,12.8,77.3,13.2z"/>
	<path class="st0" d="M99.1,13.1c-0.2,0.2-0.1,0.6,0.1,0.8c0.9,0.7,1.4,1.7,1.4,3c0,2.8-1.7,5.1-5,5.1h-7c-0.3,0-0.5-0.2-0.5-0.5
		v-15c0-0.3,0.2-0.5,0.5-0.5H95c2.8,0,5,2.2,5,4.9C100,11.6,99.7,12.5,99.1,13.1z M92.1,10.1v1.6c0,0.3,0.2,0.5,0.5,0.5h2.1
		c1.6,0,1.6-2.7,0-2.7h-2C92.3,9.5,92.1,9.8,92.1,10.1z M92.1,16.1v1.7c0,0.3,0.2,0.5,0.5,0.5h2.8c1.7,0,1.6-2.7,0-2.7h-2.7
		C92.3,15.6,92.1,15.8,92.1,16.1z"/>
	<path class="st0" d="M112.3,9.5h-4.9c-0.3,0-0.5,0.2-0.5,0.5v1.2c0,0.3,0.2,0.5,0.5,0.5h4.4c0.3,0,0.5,0.2,0.5,0.5V15
		c0,0.3-0.2,0.5-0.5,0.5h-4.4c-0.3,0-0.5,0.2-0.5,0.5v1.7c0,0.3,0.2,0.5,0.5,0.5h5.1c0.3,0,0.5,0.2,0.5,0.5v2.6
		c0,0.3-0.2,0.5-0.5,0.5h-9.2c-0.3,0-0.5-0.2-0.5-0.5v-15c0-0.3,0.2-0.5,0.5-0.5h9c0.3,0,0.5,0.2,0.5,0.5V9
		C112.8,9.3,112.6,9.5,112.3,9.5z"/>
	<path class="st0" d="M115,9V6.4c0-0.3,0.2-0.5,0.5-0.5h10.9c0.3,0,0.5,0.2,0.5,0.5V9c0,0.3-0.2,0.5-0.5,0.5h-2.9
		c-0.3,0-0.5,0.2-0.5,0.5v11.4c0,0.3-0.2,0.5-0.5,0.5h-3c-0.3,0-0.5-0.2-0.5-0.5V10.1c0-0.3-0.2-0.5-0.5-0.5h-2.9
		C115.3,9.5,115,9.3,115,9z"/>
</g>
<g id="in">
	<rect class="st1" width="27.6" height="27.6"/>
	<g>
		<g>
			<g>
				<path class="st2" d="M14.3,15.2v6.1c0,0.3-0.2,0.5-0.5,0.5h-3.2c-0.3,0-0.5-0.2-0.5-0.5V6.3c0-0.3,0.2-0.5,0.5-0.5h3.5
					c0.1,0,0.2,0,0.3,0.1c0.1,0,0.1,0.1,0.2,0.2l4.2,6.8c0.3,0.3,0.9,0.1,0.9-0.4V6.3c0-0.3,0.2-0.5,0.5-0.5h3.1
					C23.7,5.8,24,6,24,6.3v15.1c0,0.3-0.2,0.5-0.5,0.5h-3.5c-0.1,0-0.2,0-0.3-0.1c-0.1,0-0.1-0.1-0.2-0.2l-4.3-6.8
					C14.9,14.5,14.3,14.8,14.3,15.2z"/>
				<path class="st2" d="M7.3,21.9h-3c-0.3,0-0.5-0.2-0.5-0.5v-15c0-0.3,0.2-0.5,0.5-0.5h3c0.3,0,0.5,0.2,0.5,0.5v15
					C7.8,21.6,7.6,21.9,7.3,21.9z"/>
			</g>
		</g>
	</g>
</g>
</svg>
